<svg width="677" height="840" viewBox="0 0 677 840" fill="none" xmlns="http://www.w3.org/2000/svg">
<path d="M327 0V629H420.333V186.37L677 256.259V93.1852L327 0Z" fill="#DFA100"/>
<path d="M210.5 421C182.857 421 155.485 426.419 129.944 436.947C104.406 447.475 81.2 462.908 61.6531 482.36C42.1083 501.814 26.601 524.91 16.023 550.327C5.44494 575.747 0 602.989 0 630.5C0 658.011 5.44494 685.256 16.023 710.673C26.601 736.09 42.1083 759.186 61.6531 778.64C81.2 798.092 104.406 813.523 129.944 824.053C155.485 834.581 182.857 840 210.5 840C238.143 840 265.515 834.581 291.056 824.053C316.594 813.523 339.8 798.092 359.347 778.64C378.892 759.186 394.399 736.09 404.977 710.673C415.555 685.256 421 658.011 421 630.5C421 602.989 415.555 575.747 404.977 550.327C394.399 524.91 378.892 501.814 359.347 482.36C339.8 462.908 316.594 447.475 291.056 436.947C265.515 426.419 238.143 421 210.5 421Z" fill="#FFB800"/>
</svg>
